<!DOCTYPE svg PUBLIC "-//W3C//DTD SVG 20010904//EN" "http://www.w3.org/TR/2001/REC-SVG-20010904/DTD/svg10.dtd">
<svg version="1.0" xmlns="http://www.w3.org/2000/svg" width="577px" height="408px" viewBox="0 0 5770 4080" preserveAspectRatio="xMidYMid meet">
<g id="layer101" fill="#fcfcfc" stroke="none">
 <path d="M1475 4036 c-22 -16 -24 -65 -5 -102 15 -27 156 -101 237 -125 47 -13 48 -16 59 -85 l7 -49 -47 52 c-53 59 -93 74 -131 49 -14 -9 -25 -25 -25 -36 0 -27 -6 -25 -48 11 -30 26 -41 30 -76 26 -23 -2 -60 0 -82 6 -56 14 -94 -8 -94 -55 l0 -31 -43 47 c-48 50 -82 59 -110 28 -25 -27 -21 -65 13 -132 31 -60 37 -90 21 -90 -5 0 -16 -3 -25 -6 -10 -4 -16 -1 -16 8 0 24 -76 172 -99 192 -28 26 -40 12 -17 -22 34 -52 85 -170 104 -238 18 -65 21 -69 48 -69 23 0 30 5 32 23 2 13 -4 34 -12 47 -9 13 -16 27 -16 30 0 3 23 5 50 5 28 0 50 4 50 9 0 4 -18 47 -40 94 -22 47 -40 97 -40 113 l0 27 23 -21 c12 -11 36 -46 52 -76 17 -31 36 -56 43 -56 6 0 12 -4 12 -10 0 -16 61 -80 91 -96 39 -20 92 -18 112 4 33 37 15 128 -39 199 -25 33 -25 53 1 53 18 0 62 -54 88 -107 12 -24 26 -43 31 -43 6 -1 23 -19 39 -41 15 -21 42 -48 60 -59 57 -35 177 -21 177 22 0 24 -32 23 -48 -2 -19 -32 -42 -24 -97 33 -82 84 -119 187 -68 187 24 0 78 -63 108 -125 15 -30 30 -55 34 -55 3 0 16 -3 29 -6 22 -6 22 -5 22 87 l0 94 24 -30 c14 -16 32 -47 42 -67 9 -21 20 -38 24 -38 4 0 20 -18 36 -41 15 -22 46 -50 68 -61 69 -36 166 -25 166 18 0 19 -24 18 -40 -1 -20 -24 -37 -18 -86 27 -74 68 -128 182 -96 202 14 8 72 -58 111 -125 42 -72 58 -84 94 -75 l27 6 -26 41 c-29 47 -54 112 -54 142 0 20 0 20 21 1 11 -10 37 -44 56 -76 20 -32 41 -58 48 -58 10 0 37 -71 71 -188 2 -8 15 -12 31 -10 34 4 42 37 19 73 -9 13 -16 27 -16 30 0 3 23 5 50 5 28 0 50 4 50 9 0 4 -18 47 -40 94 -22 47 -40 97 -40 113 l0 27 23 -21 c12 -11 36 -46 52 -76 17 -31 36 -56 43 -56 18 0 7 33 -30 93 -52 82 -106 108 -141 69 -25 -27 -21 -65 13 -132 31 -60 37 -90 21 -90 -5 0 -16 -3 -25 -6 -10 -4 -16 -1 -16 8 0 18 -68 159 -87 180 -9 10 -36 27 -61 39 -53 26 -95 18 -100 -19 -4 -28 -6 -27 -36 3 -27 27 -67 41 -92 31 -9 -3 -21 -19 -27 -35 l-11 -30 -45 41 c-24 23 -57 67 -74 98 -37 72 -102 141 -159 169 -50 24 -125 28 -153 7z m90 -20 c19 -8 35 -20 35 -25 0 -6 6 -11 14 -11 16 0 80 -71 103 -114 l15 -29 -29 7 c-44 11 -156 65 -180 88 -23 22 -39 70 -28 88 9 14 29 13 70 -4z m-187 -304 c3 -40 4 -42 37 -42 30 0 35 -4 50 -44 18 -46 17 -97 -1 -103 -48 -16 -164 194 -127 231 19 18 38 -1 41 -42z"/>
 <path d="M3753 3865 c-41 -17 -63 -61 -63 -123 0 -64 21 -131 85 -277 59 -133 70 -167 61 -190 -24 -63 -235 189 -378 450 -41 76 -45 80 -81 83 -20 2 -37 -1 -37 -6 0 -5 22 -56 49 -113 96 -202 147 -425 106 -459 -23 -19 -56 2 -108 69 -83 107 -112 156 -207 346 -79 157 -99 191 -118 193 -54 8 -54 -2 8 -130 119 -248 174 -463 136 -535 -24 -47 -70 -59 -135 -34 -241 91 -391 372 -263 494 40 38 70 41 122 15 55 -28 99 -90 107 -148 7 -48 -10 -70 -54 -70 -13 0 -23 -4 -23 -10 0 -15 83 -12 104 3 9 7 20 31 22 52 7 56 -43 138 -110 180 -63 38 -157 43 -202 9 -58 -42 -69 -69 -69 -157 0 -74 3 -88 34 -145 116 -215 443 -340 525 -201 20 33 23 141 6 198 -5 19 -8 36 -6 39 2 2 23 -24 46 -57 56 -84 103 -128 147 -140 56 -16 71 -14 100 15 23 23 25 30 19 84 -4 32 -16 90 -26 129 -11 39 -20 76 -20 82 0 6 31 -29 69 -78 96 -121 109 -136 164 -177 38 -29 58 -36 92 -36 35 0 47 5 56 21 16 30 6 67 -50 189 -99 215 -125 352 -78 404 12 14 38 29 57 35 l35 9 -45 1 c-25 0 -59 -6 -77 -14z"/>
 <path d="M173 3810 c-64 -20 -84 -92 -37 -135 40 -37 128 -35 213 5 51 24 66 28 78 18 25 -21 70 -92 129 -204 65 -124 121 -211 172 -268 32 -37 34 -40 16 -47 -34 -13 -172 -9 -251 7 -159 33 -265 117 -265 211 0 44 26 72 74 79 29 5 41 1 71 -26 20 -17 39 -40 42 -51 8 -23 35 -26 35 -4 0 65 -86 121 -167 109 -134 -20 -152 -165 -32 -268 82 -69 219 -99 439 -95 69 1 141 -1 160 -5 33 -7 34 -6 16 8 -23 19 -24 18 38 42 69 25 126 81 126 123 0 68 -46 118 -134 143 l-49 14 44 23 c59 31 76 47 90 88 16 49 3 98 -38 144 -89 99 -227 120 -430 69 l-78 -20 -50 21 c-56 25 -163 34 -212 19z m138 -32 c19 -6 43 -17 53 -24 18 -12 14 -16 -45 -44 -68 -32 -107 -38 -127 -18 -20 20 -13 55 14 77 30 24 56 26 105 9z m474 -12 c96 -44 144 -130 111 -195 -18 -33 -60 -58 -146 -86 -30 -10 -60 -22 -67 -27 -8 -7 -20 3 -39 34 -72 117 -92 147 -131 195 -23 29 -38 55 -33 58 5 3 42 14 82 25 100 26 162 25 223 -4z m63 -342 c83 -34 130 -110 98 -159 -17 -25 -84 -65 -110 -65 -17 0 -146 198 -146 224 0 4 38 10 98 14 12 1 39 -5 60 -14z"/>
 <path d="M4117 3813 c-4 -3 -7 -13 -7 -21 0 -10 7 -12 24 -8 16 4 32 -1 49 -15 30 -23 95 -150 99 -194 5 -50 -24 -36 -58 27 -16 32 -37 64 -45 70 -8 7 -27 31 -42 54 -35 52 -68 71 -105 58 -16 -6 -28 -18 -30 -32 -3 -22 -22 -32 -22 -12 0 15 -61 50 -87 50 -28 0 -53 -36 -53 -75 2 -75 61 -175 124 -207 69 -36 166 -25 166 18 0 19 -24 18 -40 -1 -20 -24 -37 -18 -86 27 -74 68 -128 182 -96 202 14 8 72 -58 111 -125 42 -72 58 -84 94 -75 l27 6 -26 41 c-29 47 -54 112 -54 141 0 18 2 19 17 7 9 -8 33 -39 52 -69 20 -31 42 -62 49 -70 7 -8 26 -34 42 -57 42 -59 104 -71 117 -23 7 27 14 25 45 -10 19 -21 35 -30 58 -30 27 0 31 3 28 23 -2 17 -11 23 -35 25 -71 7 -145 196 -86 219 20 8 57 -31 90 -93 15 -30 33 -54 38 -54 13 0 35 -57 35 -88 0 -19 6 -22 40 -22 22 0 40 5 40 11 0 5 -14 42 -31 82 -49 114 -58 143 -48 158 13 22 37 1 81 -71 21 -36 44 -66 51 -68 7 -2 26 -26 42 -55 30 -52 56 -67 91 -53 13 5 12 10 -5 32 -30 38 -26 52 7 22 36 -34 65 -48 98 -48 25 0 26 2 21 35 -4 26 -3 34 6 28 7 -4 32 -20 56 -35 41 -25 108 -39 99 -20 -2 4 -19 39 -39 77 -41 77 -66 152 -56 162 11 11 57 -38 89 -94 16 -29 35 -53 42 -53 6 0 24 -25 39 -55 27 -55 27 -55 72 -55 l46 0 -25 33 c-13 17 -41 69 -62 114 -34 77 -39 113 -14 113 15 0 74 -85 122 -177 42 -80 44 -83 79 -83 l35 0 -48 96 c-46 92 -59 146 -38 159 10 6 63 -60 88 -112 9 -18 21 -33 27 -33 6 0 24 -27 40 -60 38 -79 63 -102 106 -98 34 3 43 23 11 23 -47 1 -54 43 -22 125 25 63 25 76 0 123 -19 35 -19 37 -2 28 10 -5 33 -37 52 -70 23 -39 42 -61 53 -61 17 0 15 8 -15 62 -46 84 -69 99 -161 105 -68 4 -77 3 -97 -17 -20 -20 -23 -20 -39 -6 -28 25 -75 31 -94 11 -10 -9 -17 -24 -17 -33 0 -12 -6 -10 -27 10 -58 55 -133 41 -133 -25 l0 -32 -20 30 c-10 16 -30 37 -42 47 -27 20 -78 24 -96 6 -22 -22 -13 -90 17 -145 55 -99 -15 -48 -98 71 -23 33 -41 66 -41 73 0 8 -8 13 -17 11 -29 -5 -28 -69 1 -134 14 -31 26 -61 26 -67 0 -21 -86 73 -120 131 -40 67 -46 72 -83 72 -26 0 -27 -2 -16 -22 12 -22 11 -23 -8 -5 -30 26 -86 33 -106 12 -9 -9 -17 -26 -17 -38 0 -19 -3 -18 -33 11 -54 52 -126 53 -142 1 -7 -21 -9 -20 -41 15 -41 45 -98 69 -117 49z m1371 -88 c13 -29 15 -109 3 -140 -7 -18 -11 -15 -30 22 -24 48 -25 54 -10 106 12 43 21 47 37 12z"/>
 <path d="M4543 3454 c-10 -27 11 -49 48 -49 23 0 35 5 37 16 7 39 -71 69 -85 33z"/>
 <path d="M3187 3024 c-4 -5 -88 -11 -185 -14 -160 -6 -147 -7 136 -8 200 -1 312 -6 312 -12 0 -6 -113 -10 -320 -10 -207 0 -320 4 -320 10 0 6 -18 10 -41 10 -24 0 -38 -4 -34 -10 4 -7 -105 -10 -319 -10 -202 0 -327 4 -331 10 -4 6 83 11 242 13 136 1 -213 3 -777 4 -885 2 -1028 0 -1044 -12 -11 -8 -18 -17 -15 -19 2 -2 40 -12 84 -22 70 -17 129 -19 455 -21 206 -1 402 -5 435 -8 93 -10 2051 -6 2215 4 80 5 296 8 480 6 184 -2 421 0 525 3 183 7 190 8 193 28 3 20 -3 22 -115 29 -126 9 -244 10 -553 6 -206 -3 -907 15 -975 25 -22 3 -44 2 -48 -2z m-1147 -44 c0 -12 -158 -12 -166 1 -3 5 32 9 80 9 50 0 86 -4 86 -10z m1630 0 c0 -6 -32 -10 -75 -10 -43 0 -75 4 -75 10 0 6 32 10 75 10 43 0 75 -4 75 -10z m-1833 -6 c32 -9 18 -24 -20 -23 -18 0 -26 3 -19 6 6 2 10 9 6 14 -6 10 2 11 33 3z m1909 -9 c14 -13 11 -15 -20 -15 -34 0 -44 8 -29 23 11 12 34 8 49 -8z m-1556 -17 c0 -10 -34 -12 -142 -10 -197 4 -205 22 -10 22 115 0 152 -3 152 -12z m1400 3 c0 -6 -59 -11 -135 -13 -103 -2 -135 0 -135 10 0 9 34 12 135 12 78 0 135 -4 135 -9z m-340 -11 c0 -7 -177 -10 -511 -10 -337 0 -508 3 -504 10 4 6 185 10 511 10 329 0 504 -3 504 -10z"/>
 <path d="M2664 2605 c-53 -27 -74 -53 -74 -90 0 -33 2 -35 34 -35 19 0 36 4 38 10 5 14 211 15 216 1 2 -6 21 -11 43 -11 37 0 39 1 39 33 0 23 -7 38 -27 52 -14 11 -33 27 -41 35 -23 23 -187 26 -228 5z"/>
 <path d="M594 2411 c3 -4 -43 -11 -102 -15 -114 -7 -181 -29 -182 -58 0 -15 23 -16 243 -17 253 -1 364 -8 373 -22 3 -5 33 -9 66 -9 67 0 187 -18 203 -30 6 -5 31 -11 58 -15 26 -4 47 -10 47 -14 0 -4 37 -13 83 -20 45 -7 87 -16 92 -20 6 -4 44 -14 85 -21 41 -7 80 -16 85 -20 6 -4 33 -11 60 -15 28 -4 52 -11 55 -15 3 -5 34 -14 70 -21 36 -7 67 -16 70 -20 3 -3 41 -11 85 -18 44 -7 85 -17 90 -21 6 -4 40 -11 78 -15 37 -4 67 -11 67 -16 0 -5 52 -9 115 -9 70 0 115 4 115 10 0 6 12 10 28 10 63 0 168 84 209 169 27 55 33 161 8 161 -13 0 -35 -55 -35 -88 0 -7 -7 -15 -15 -18 -8 -4 -15 -11 -15 -18 0 -14 -57 -76 -92 -98 -14 -10 -51 -21 -80 -26 -58 -9 -235 3 -252 17 -6 5 -35 12 -63 16 -29 4 -53 10 -53 14 0 4 -38 13 -85 20 -47 7 -85 16 -85 20 0 4 -30 13 -67 20 -37 7 -72 16 -78 20 -5 5 -40 14 -78 21 -37 7 -69 16 -72 20 -3 5 -28 11 -55 15 -28 4 -50 10 -50 14 0 4 -36 13 -80 20 -44 8 -80 17 -80 22 0 5 -17 9 -38 9 -62 0 -206 21 -220 32 -7 6 -94 13 -197 16 -102 3 -185 9 -185 13 0 5 -30 9 -66 9 -36 0 -63 -4 -60 -9z"/>
 <path d="M4510 2393 c-30 -2 -60 -8 -66 -14 -6 -5 -68 -15 -138 -21 -69 -7 -126 -15 -126 -19 0 -4 -31 -13 -70 -20 -38 -7 -70 -16 -70 -20 0 -4 -21 -11 -47 -14 -27 -3 -55 -10 -63 -14 -8 -4 -45 -14 -82 -21 -38 -8 -68 -17 -68 -21 0 -4 -30 -12 -67 -19 -38 -7 -70 -17 -73 -21 -3 -4 -39 -14 -80 -20 -41 -7 -77 -16 -81 -21 -3 -4 -27 -11 -55 -14 -27 -4 -51 -10 -54 -13 -8 -10 -145 -31 -204 -31 -88 0 -155 28 -212 88 -19 20 -34 40 -34 45 0 5 -7 15 -15 23 -8 9 -15 26 -15 38 0 13 -9 34 -21 47 -17 19 -22 21 -29 9 -22 -34 -1 -144 36 -190 37 -46 83 -88 103 -95 12 -3 21 -10 21 -15 0 -5 16 -12 35 -16 19 -3 35 -10 35 -15 0 -5 63 -9 140 -9 77 0 140 4 140 9 0 5 24 12 53 16 28 4 57 11 62 15 6 4 45 13 88 20 42 7 77 16 77 20 0 5 38 14 85 21 47 7 85 16 85 20 0 4 24 10 53 14 28 4 57 11 62 15 6 5 39 14 75 21 36 7 68 17 71 21 3 5 42 14 87 20 45 7 82 15 82 19 0 4 28 10 63 14 34 4 67 11 72 15 6 5 60 14 120 21 61 7 112 16 115 20 9 12 138 20 380 25 129 2 243 4 253 4 33 0 17 28 -20 35 -21 4 -44 12 -52 18 -14 12 -528 20 -651 10z"/>
 <path d="M3882 1858 c-20 -20 -14 -39 36 -120 78 -127 210 -273 647 -715 104 -106 184 -193 177 -193 -17 0 -15 -41 4 -68 9 -13 14 -26 10 -29 -3 -3 5 -14 17 -24 12 -10 19 -18 16 -19 -4 0 39 -48 95 -106 55 -59 104 -115 108 -126 4 -11 12 -17 16 -14 5 3 26 -13 48 -35 119 -123 305 -249 370 -249 17 0 37 -7 44 -15 7 -8 21 -15 31 -15 10 0 37 -20 60 -45 35 -38 46 -44 68 -39 41 10 61 34 61 71 0 18 -4 33 -10 33 -17 0 -80 68 -80 87 -1 21 -22 44 -379 411 -146 151 -266 279 -266 285 0 7 -4 12 -10 12 -19 0 -35 16 -29 27 4 6 2 8 -3 5 -12 -7 -36 16 -28 26 3 4 2 5 -2 2 -10 -8 -113 97 -106 108 3 6 1 7 -4 4 -10 -6 -51 30 -45 39 1 2 0 3 -2 2 -9 -6 -45 35 -39 45 3 5 2 7 -4 4 -13 -8 -106 87 -96 98 5 4 3 5 -4 1 -7 -4 -29 14 -55 44 -24 27 -48 50 -54 50 -7 0 -27 17 -46 38 -118 129 -353 333 -428 372 -19 10 -45 28 -57 39 -25 24 -44 26 -61 9z"/>
 </g>

</svg>